<svg xmlns="http://www.w3.org/2000/svg" width="64" height="64" version="1.0"><path d="M31.188 0C13.904.438 0 14.612 0 32c0 17.664 14.336 32 32 32s32-14.336 32-32S49.664 0 32 0c-.276 0-.538-.007-.813 0zm-.032 5.5c.284-.009.558 0 .844 0 14.628 0 26.5 11.872 26.5 26.5S46.628 58.5 32 58.5 5.5 46.628 5.5 32c0-14.342 11.423-26.049 25.656-26.5z"/><path style="text-align:start;line-height:100%" d="M25.645 38.743c2.061 2.882 8.35 3.09 10.51 1.868.793-.448.99-1.746.99-2.627 0-.604-.158-1.078-.476-1.424-.336-.345-1.19-1.22-2.179-1.48-5.016-1.294-8.491-2.91-9.851-4.084-1.696-1.467-1.97-2.425-1.97-4.98 0-2.554.735-4.695 2.395-6.23 1.66-1.537 4.071-2.305 7.233-2.305 3.02 0 7.268.798 9.34 3.256l-3.453 3.756c-1.948-1.635-3.396-1.782-5.78-1.782-1.502 0-2.284.215-2.92.647-.636.414-.954.958-.954 1.63 0 .605.292 1.105.875 1.502.583.414 2.106 1.036 5.144 1.864 3.41.932 5.723 2.063 6.942 3.391 1.201 1.33 1.802 3.098 1.802 5.307 0 2.658-.937 4.85-2.809 6.576-1.855 1.726-4.138 3.067-7.423 3.067-4.229 0-9.874-1.494-11.431-4.255" font-size="53.814" font-weight="700" font-family="Arial Narrow"/><path d="M30.375 12.875v6.844h3.25v-6.844h-3.25zm0 32.094v6.156h3.25v-6.156h-3.25z"/></svg>