<svg xmlns="http://www.w3.org/2000/svg" viewBox="0 0 1000 1000"><path d="M500 10C229.4 10 10 229.4 10 500s219.4 490 490 490 490-219.4 490-490S770.6 10 500 10zm0 903.4C271.7 913.4 86.6 728.3 86.6 500S271.7 86.6 500 86.6 913.4 271.7 913.4 500 728.3 913.4 500 913.4z"/><path d="M541.6 745c-66.3 0-126.1-26.3-164.8-75.1-23.3-27-39.4-63.5-45.9-107.9h-46.7v-45.3H325v-10.9c0-9.5.7-18.9 1.4-26.9h-42.3v-45.2H333c8.7-45.2 28.4-82.4 54.7-110.8 39.4-43 92.6-67.8 157.6-67.8 43.7 0 80.2 10.9 104.2 22.6l-18.2 67.1c-19-9.5-48.8-19-81.6-19-36.5 0-68.5 13.1-92.7 40.1-15.3 16-26.2 40.1-32.1 67.8h191v45.2H416.2c-1.5 8-1.5 16.8-1.5 26.3v11.6h201.2V562H422.7c5.1 30.6 16.1 54.7 31.3 70.7 24.8 27 59.8 39.4 97.7 39.4 35.7 0 69.3-12.4 86.1-21.1l15.3 64.9c-24 14.5-64.8 29.1-111.5 29.1z"/></svg>