<svg height="300" width="300" xmlns="http://www.w3.org/2000/svg" viewBox="0 0 100 100"><path d="M81.7 18.3C72.9 9.6 61.4 5.2 49.9 5.2s-23 4.4-31.8 13.2C.6 35.9.6 64.4 18.1 81.9 26.9 90.6 38.4 95 49.9 95s23-4.4 31.8-13.2c17.5-17.5 17.5-45.9 0-63.5zm-3.8 59.8c-7.5 7.5-17.4 11.6-28 11.6-10.6 0-20.5-4.1-28-11.6s-11.6-17.4-11.6-28c0-10.6 4.1-20.5 11.6-28s17.4-11.6 28-11.6c10.6 0 20.5 4.1 28 11.6s11.6 17.4 11.6 28c0 10.6-4.1 20.5-11.6 28z"/><path d="M57.6 22.7H40.7c-1.6 0-2.8 1.3-2.8 2.8v23.2h-4.7c-1.6 0-2.8 1.3-2.8 2.8 0 1.6 1.3 2.8 2.8 2.8h4.7v5.3h-4.7c-1.6 0-2.8 1.3-2.8 2.8s1.3 2.8 2.8 2.8h4.7v9.3c0 1.6 1.3 2.8 2.8 2.8s2.8-1.3 2.8-2.8v-9.3h15.7c1.6 0 2.8-1.3 2.8-2.8s-1.3-2.8-2.8-2.8H43.5v-5.3h14c8.7 0 15.9-7.1 15.9-15.9s-7.1-15.7-15.8-15.7zm0 26h-14V28.4h14.1c5.6 0 10.2 4.6 10.2 10.2-.1 5.6-4.7 10.1-10.3 10.1z"/></svg>