<?xml version="1.0" encoding="utf-8"?>
<!-- Svg Vector Icons : http://www.onlinewebfonts.com/icon -->
<!DOCTYPE svg PUBLIC "-//W3C//DTD SVG 1.1//EN" "http://www.w3.org/Graphics/SVG/1.1/DTD/svg11.dtd">
<svg version="1.1" xmlns="http://www.w3.org/2000/svg" xmlns:xlink="http://www.w3.org/1999/xlink" x="0px" y="0px" viewBox="0 0 1000 1000" enable-background="new 0 0 1000 1000" xml:space="preserve">
<metadata> Svg Vector Icons : http://www.onlinewebfonts.com/icon </metadata>
<g><path d="M500,10C229.4,10,10,229.4,10,500c0,270.6,219.4,490,490,490c270.6,0,490-219.4,490-490C990,229.4,770.6,10,500,10z M500,913.4C271.7,913.4,86.6,728.3,86.6,500S271.7,86.6,500,86.6S913.4,271.7,913.4,500S728.3,913.4,500,913.4z"/><path d="M541.6,745c-66.3,0-126.1-26.3-164.8-75.1c-23.3-27-39.4-63.5-45.9-107.9h-46.7v-45.3H325c0-3.6,0-7.2,0-10.9c0-9.5,0.7-18.9,1.4-26.9h-42.3v-45.2h48.9c8.7-45.2,28.4-82.4,54.7-110.8c39.4-43,92.6-67.8,157.6-67.8c43.7,0,80.2,10.9,104.2,22.6l-18.2,67.1c-19-9.5-48.8-19-81.6-19c-36.5,0-68.5,13.1-92.7,40.1c-15.3,16-26.2,40.1-32.1,67.8h191v45.2H416.2c-1.5,8-1.5,16.8-1.5,26.3c0,4.4,0,7.3,0,11.6h201.2V562H422.7c5.1,30.6,16.1,54.7,31.3,70.7c24.8,27,59.8,39.4,97.7,39.4c35.7,0,69.3-12.4,86.1-21.1l15.3,64.9C629.1,730.4,588.3,745,541.6,745z"/></g>
</svg>