<svg height="300px" width="300px" fill="#000000" xmlns="http://www.w3.org/2000/svg" xmlns:xlink="http://www.w3.org/1999/xlink" version="1.1" x="0px" y="0px" viewBox="0 0 100 100" enable-background="new 0 0 100 100" xml:space="preserve"><g><path d="M81.7,18.3C72.9,9.6,61.4,5.2,49.9,5.2s-23,4.4-31.8,13.2c-17.5,17.5-17.5,46,0,63.5C26.9,90.6,38.4,95,49.9,95   s23-4.4,31.8-13.2C99.2,64.3,99.2,35.9,81.7,18.3z M77.9,78.1c-7.5,7.5-17.4,11.6-28,11.6c-10.6,0-20.5-4.1-28-11.6   c-7.5-7.5-11.6-17.4-11.6-28c0-10.6,4.1-20.5,11.6-28c7.5-7.5,17.4-11.6,28-11.6c10.6,0,20.5,4.1,28,11.6   c7.5,7.5,11.6,17.4,11.6,28C89.5,60.7,85.4,70.6,77.9,78.1z"/><path d="M57.6,22.7H40.7c-1.6,0-2.8,1.3-2.8,2.8v23.2h-4.7c-1.6,0-2.8,1.3-2.8,2.8c0,1.6,1.3,2.8,2.8,2.8h4.7v5.3h-4.7   c-1.6,0-2.8,1.3-2.8,2.8s1.3,2.8,2.8,2.8h4.7v9.3c0,1.6,1.3,2.8,2.8,2.8s2.8-1.3,2.8-2.8v-9.3h15.7c1.6,0,2.8-1.3,2.8-2.8   s-1.3-2.8-2.8-2.8H43.5v-5.3h4.7h9.3c8.7,0,15.9-7.1,15.9-15.9S66.3,22.7,57.6,22.7z M57.6,48.7h-9.3h-4.7V28.4h14.1   c5.6,0,10.2,4.6,10.2,10.2C67.8,44.2,63.2,48.7,57.6,48.7z"/></g></svg>