<?xml version="1.0" encoding="utf-8"?>
<!-- Generator: Adobe Illustrator 23.0.0, SVG Export Plug-In . SVG Version: 6.00 Build 0)  -->
<svg version="1.1" id="Layer_1" xmlns="http://www.w3.org/2000/svg" xmlns:xlink="http://www.w3.org/1999/xlink" x="0px" y="0px"
	 viewBox="0 0 500 500" style="enable-background:new 0 0 500 500;" xml:space="preserve">
<style type="text/css">
	.st0{fill-rule:evenodd;clip-rule:evenodd;fill:#ffffff;}
</style>
<path class="st0" d="M306.4,154.1c19.6,4.5,35.2,21.3,39.8,39.5c1.6,8.5,9,15,17.9,15c10,0,18.2-8.2,18.2-18.2c0-13.1-11-33-26-47.9
	c-14.7-14.5-32.3-24.8-46.7-24.8c-10,0-18.2,8.4-18.2,18.4C291.4,145.1,297.8,152.5,306.4,154.1z M56.6,392.3
	c-14.1,14.1-14.1,37,0,51.1c14.1,14.1,37,14.1,51,0L212,339.1c24.3,15.2,53.1,24,84,24c87.9,0,159-71.1,159-159
	c0-87.9-71.1-159-159-159c-87.9,0-159,71.1-159,159c0,30.8,8.8,59.6,24,84L56.6,392.3z M182.4,204.1c0-62.7,50.9-113.6,113.6-113.6
	s113.6,50.9,113.6,113.6c0,62.7-50.9,113.6-113.6,113.6S182.4,266.8,182.4,204.1z"/>
</svg>
